<svg xmlns="http://www.w3.org/2000/svg" viewBox="0 0 1000 1000"><defs><style>.cls-1{fill:#0e2e35;}.cls-2{fill:#fff;}</style></defs><g id="Layer_2" data-name="Layer 2"><rect class="cls-1" width="1000" height="1000"/></g><g id="Layer_1" data-name="Layer 1"><path class="cls-2" d="M615.7,500l83.95,60.87c25.31,19.49,51.61,24.43,51.56,120.22v93.53a17.57,17.57,0,0,1-17.57,17.55l-10.79,0c-.52,0-14.06-1.88-14.57-1.9-34.53-9.16-64.31-27-85.82-70.42L556.28,577.77c-7.57-13.34,12-14.38,24.18-10.58,10.76,3.34,15.86,7.2,21.94,17.72l51.27,116.42c14.34,29.95,35.26,43.85,55.75,53.57a3.24,3.24,0,0,0,4.58-3V681.59c-1.28-62.51-13.47-77.75-30.19-88.78l-96.43-71.09-38.91,28.72c-8.21,6.06-11.78,18-6.44,27.38l45.84,102.42c2.84,4.48-.93,15.17-1.5,19.76l-3.7,10.47c-6.68,15.2-10.41,15.75-16,5.51L504.29,585.74a56.4,56.4,0,0,1-3.11-22.06c.66-19.12,8-27,20.47-37.38L556.81,500"/><path class="cls-2" d="M615.7,500l83.95-60.87c25.31-19.49,51.61-24.43,51.56-120.22V225.38a17.57,17.57,0,0,0-17.57-17.55l-10.79,0c-.52,0-14.06,1.88-14.57,1.9-34.53,9.16-64.31,27-85.82,70.42L556.28,422.23c-7.57,13.34,12,14.38,24.18,10.58,10.76-3.34,15.86-7.2,21.94-17.72l51.27-116.42c14.34-29.95,35.26-43.85,55.75-53.57a3.24,3.24,0,0,1,4.58,3v70.35c-1.28,62.51-13.47,77.75-30.19,88.78l-96.43,71.09-38.91-28.72c-8.21-6.06-11.78-18-6.44-27.38l45.84-102.42c2.84-4.48-.93-15.17-1.5-19.76l-3.7-10.47c-6.68-15.2-10.41-15.75-16-5.51L504.29,414.26a56.4,56.4,0,0,0-3.11,22.06c.66,19.12,8,27,20.47,37.38L556.81,500"/><path class="cls-2" d="M386.65,500,302.7,560.87c-25.31,19.49-51.61,24.43-51.56,120.22v93.53a17.57,17.57,0,0,0,17.57,17.55l10.79,0c.52,0,14.06-1.88,14.57-1.9,34.53-9.16,64.31-27,85.82-70.42l66.18-142.12c7.57-13.34-11.95-14.38-24.18-10.58-10.76,3.34-15.86,7.2-21.94,17.72L348.68,701.33c-14.34,29.95-35.26,43.85-55.75,53.57a3.24,3.24,0,0,1-4.58-3V681.59c1.28-62.51,13.47-77.75,30.19-88.78L415,521.72l38.91,28.72c8.21,6.06,11.78,18,6.44,27.38L414.48,680.24c-2.84,4.48.93,15.17,1.5,19.76l3.7,10.47c6.68,15.2,10.41,15.75,16,5.51l62.35-130.24a56.61,56.61,0,0,0,3.12-22.06c-.66-19.12-8.05-27-20.48-37.38L445.54,500"/><path class="cls-2" d="M386.65,500,302.7,439.13c-25.31-19.49-51.61-24.43-51.56-120.22V225.38a17.57,17.57,0,0,1,17.57-17.55l10.79,0c.52,0,14.06,1.88,14.57,1.9,34.53,9.16,64.31,27,85.82,70.42l66.18,142.12c7.57,13.34-11.95,14.38-24.18,10.58-10.76-3.34-15.86-7.2-21.94-17.72L348.68,298.67c-14.34-29.95-35.26-43.85-55.75-53.57a3.24,3.24,0,0,0-4.58,3v70.35c1.28,62.51,13.47,77.75,30.19,88.78L415,478.28l38.91-28.72c8.21-6.06,11.78-18,6.44-27.38L414.48,319.76c-2.84-4.48.93-15.17,1.5-19.76l3.7-10.47c6.68-15.2,10.41-15.75,16-5.51l62.35,130.24a56.61,56.61,0,0,1,3.12,22.06c-.66,19.12-8.05,27-20.48,37.38L445.54,500"/></g></svg>